<svg width="90" height="90" viewBox="0 0 90 90" fill="none" xmlns="http://www.w3.org/2000/svg">
<rect width="90" height="90" rx="21.7937" fill="#0B0E12"/>
<circle cx="45" cy="45" r="38.9462" fill="#13171D"/>
<path d="M58.7768 32.7804C58.7491 32.5796 58.5732 32.4685 58.4278 32.4562C58.2827 32.4441 55.2113 32.2165 55.2113 32.2165C55.2113 32.2165 53.0782 30.0987 52.844 29.8643C52.6098 29.6301 52.1522 29.7013 51.9747 29.7536C51.9485 29.7613 51.5086 29.8971 50.7809 30.1223C50.0684 28.0718 48.8108 26.1875 46.5985 26.1875C46.5374 26.1875 46.4745 26.19 46.4117 26.1936C45.7825 25.3615 45.0031 25 44.3298 25C39.1762 25 36.7141 31.4426 35.9421 34.7164C33.9395 35.337 32.5169 35.7781 32.3352 35.8352C31.2174 36.1858 31.182 36.2211 31.0352 37.2743C30.9248 38.0718 28 60.6904 28 60.6904L50.7904 64.9605L63.139 62.2891C63.139 62.2891 58.804 32.9813 58.7768 32.7804ZM49.5213 30.5118L47.5929 31.1087C47.5936 30.9728 47.5942 30.8391 47.5942 30.6929C47.5942 29.4185 47.4173 28.3925 47.1336 27.5791C48.2735 27.7221 49.0327 29.0192 49.5213 30.5118ZM45.7195 27.8318C46.0364 28.6259 46.2425 29.7656 46.2425 31.3035C46.2425 31.3822 46.2418 31.4541 46.2411 31.5269C44.987 31.9153 43.6242 32.3371 42.2584 32.7602C43.0252 29.8005 44.4627 28.371 45.7195 27.8318ZM44.1883 26.3823C44.4107 26.3823 44.6348 26.4578 44.8493 26.6054C43.1976 27.3827 41.4272 29.3401 40.6796 33.2491L37.5314 34.2241C38.4071 31.2425 40.4866 26.3823 44.1883 26.3823Z" fill="#95BF46"/>
<path d="M58.4278 32.4562C58.2827 32.4441 55.2113 32.2165 55.2113 32.2165C55.2113 32.2165 53.0782 30.0988 52.8441 29.8644C52.7565 29.7772 52.6383 29.7325 52.5148 29.7132L50.7916 64.9602L63.1391 62.2891C63.1391 62.2891 58.8041 32.9813 58.7768 32.7805C58.7492 32.5796 58.5732 32.4685 58.4278 32.4562Z" fill="#5E8E3E"/>
<path d="M43.4858 39.6709C44.2994 39.6709 44.9203 39.7737 45.353 39.8809L44.4721 42.501C43.8726 42.3061 43.0396 42.1084 42.1069 42.1084C40.6893 42.1084 39.7326 42.5647 39.1684 43.2891C38.64 43.9678 38.6001 44.7039 38.6001 44.9805C38.6002 45.9588 39.2439 46.6511 39.7817 47.1201C40.0687 47.3705 40.3936 47.6139 40.7085 47.8457C41.0331 48.0847 41.3527 48.3157 41.6733 48.5684C42.9364 49.5638 43.9926 50.719 43.9926 52.6865C43.9926 54.3819 43.4577 55.6963 42.6401 56.5771C41.826 57.4541 40.6747 57.9658 39.3032 57.9658C37.5618 57.9658 36.2599 57.4255 35.3969 56.8945C35.0123 56.6578 34.7158 56.4217 34.5073 56.2373L34.9819 54.668C35.0437 54.707 35.1071 54.7477 35.1723 54.7871C35.9342 55.2471 37.078 55.8114 38.229 55.8115C39.0853 55.8115 39.7615 55.4614 40.2075 54.9326C40.629 54.4329 40.813 53.8149 40.813 53.2783C40.8129 52.2885 40.3912 51.5496 39.8676 50.9688C39.3901 50.4391 38.7297 49.9474 38.2456 49.5439C37.7159 49.1026 37.2637 48.6703 36.935 48.1338C36.6172 47.6149 36.3891 46.9549 36.3891 46.0254C36.3892 44.3932 36.974 42.8144 38.1206 41.6475C39.2577 40.4903 41.0136 39.671 43.4858 39.6709Z" fill="white" stroke="white" stroke-width="1.97657"/>
</svg>
