<svg width="90" height="90" viewBox="0 0 90 90" fill="none" xmlns="http://www.w3.org/2000/svg">
<rect width="90" height="90" rx="21.7937" fill="#0B0E12"/>
<circle cx="45" cy="45" r="38.9462" fill="#13171D"/>
<path d="M24.0011 32.0014C28.1165 32.0021 32.2327 32.0021 36.3481 32.0014C36.3509 35.3818 36.3467 38.7622 36.3502 42.1426C36.4448 42.1365 36.5402 42.1317 36.6356 42.1269C38.3088 38.7485 39.9978 35.3784 41.6744 32.0021C44.7869 32.0027 47.9001 32.0014 51.0132 32.0027C51.0125 35.3571 51.0119 38.7122 51.0132 42.0673C51.1045 42.0687 51.1957 42.0701 51.2883 42.0728C53.0397 38.717 54.7829 35.3578 56.5295 32C61.0847 32.0048 65.6406 32 70.1965 32.0027C65.275 41.5794 60.3637 51.1616 55.4552 60.7445C50.8383 60.739 46.2214 60.7452 41.6037 60.7417C43.6721 56.7742 45.7158 52.7943 47.7827 48.8268C47.686 48.8275 47.59 48.8282 47.4946 48.8302C45.7789 51.0713 43.7325 53.0605 41.4384 54.709C39.3234 56.2322 36.9978 57.4564 34.5638 58.3884C31.1824 59.6831 27.6027 60.416 24.0011 60.7417C23.9997 56.8269 24.0004 52.9127 24.0004 48.9979C25.6029 48.8603 27.1849 48.5202 28.7161 48.033C31.0403 47.2748 33.2878 46.1047 34.9884 44.3221C31.3257 44.3159 27.6637 44.3207 24.0011 44.32C23.9997 40.2136 23.9997 36.1078 24.0011 32.0014Z" fill="#146EF5"/>
</svg>
